<?xml version="1.0"?>
<svg xmlns="http://www.w3.org/2000/svg" height="512px" viewBox="0 0 480 480" width="512px"><path d="m240 0c-132.546875 0-240 107.453125-240 240s107.453125 240 240 240 240-107.453125 240-240c-.148438-132.484375-107.515625-239.851562-240-240zm0 464c-123.710938 0-224-100.289062-224-224s100.289062-224 224-224 224 100.289062 224 224c-.140625 123.652344-100.347656 223.859375-224 224zm0 0" fill="#df594e"/><path d="m240 48c-106.039062 0-192 85.960938-192 192s85.960938 192 192 192 192-85.960938 192-192c-.125-105.988281-86.011719-191.875-192-192zm0 368c-97.203125 0-176-78.796875-176-176s78.796875-176 176-176 176 78.796875 176 176c-.109375 97.15625-78.84375 175.890625-176 176zm0 0" fill="#df594e"/><path d="m240 120c4.417969 0 8-3.582031 8-8v-24c0-4.417969-3.582031-8-8-8s-8 3.582031-8 8v24c0 4.417969 3.582031 8 8 8zm0 0" fill="#df594e"/><path d="m138.175781 126.863281c-2.007812-2.078125-4.984375-2.914062-7.78125-2.179687-2.796875.730468-4.980469 2.914062-5.710937 5.710937-.734375 2.796875.101562 5.773438 2.179687 7.78125l16.96875 16.976563c3.125 3.125 8.195313 3.125 11.320313 0s3.125-8.195313 0-11.320313zm0 0" fill="#df594e"/><path d="m112 232h-24c-4.417969 0-8 3.582031-8 8s3.582031 8 8 8h24c4.417969 0 8-3.582031 8-8s-3.582031-8-8-8zm0 0" fill="#df594e"/><path d="m143.832031 324.847656-16.96875 16.976563c-2.078125 2.007812-2.914062 4.984375-2.179687 7.78125.730468 2.796875 2.914062 4.980469 5.710937 5.710937 2.796875.734375 5.773438-.101562 7.78125-2.179687l16.976563-16.96875c3.125-3.125 3.125-8.195313 0-11.320313s-8.195313-3.125-11.320313 0zm0 0" fill="#df594e"/><path d="m240 360c-4.417969 0-8 3.582031-8 8v24c0 4.417969 3.582031 8 8 8s8-3.582031 8-8v-24c0-4.417969-3.582031-8-8-8zm0 0" fill="#df594e"/><path d="m336.167969 324.847656c-3.125-3.125-8.195313-3.125-11.320313 0s-3.125 8.195313 0 11.320313l16.976563 16.96875c3.140625 3.03125 8.128906 2.988281 11.214843-.097657 3.085938-3.085937 3.128907-8.074218.097657-11.214843zm0 0" fill="#df594e"/><path d="m360 240c0 4.417969 3.582031 8 8 8h24c4.417969 0 8-3.582031 8-8s-3.582031-8-8-8h-24c-4.417969 0-8 3.582031-8 8zm0 0" fill="#df594e"/><path d="m341.824219 126.863281-16.976563 16.96875c-3.125 3.125-3.125 8.195313 0 11.320313s8.195313 3.125 11.320313 0l16.96875-16.976563c2.078125-2.007812 2.914062-4.984375 2.179687-7.78125-.730468-2.796875-2.914062-4.980469-5.710937-5.710937-2.796875-.734375-5.773438.101562-7.78125 2.179687zm0 0" fill="#df594e"/><path d="m298.34375 170.34375-42.191406 42.191406c-9.917969-6.046875-22.386719-6.046875-32.304688 0l-26.191406-26.191406c-3.140625-3.03125-8.128906-2.988281-11.214844.097656-3.085937 3.085938-3.128906 8.074219-.097656 11.214844l26.191406 26.191406c-2.941406 4.875-4.507812 10.457032-4.535156 16.152344-.1875 9.421875 3.867188 18.433594 11.050781 24.539062 7.179688 6.101563 16.726563 8.65625 25.996094 6.949219l43.625 99.710938c1.273437 2.914062 4.148437 4.800781 7.328125 4.800781 1.101562.003906 2.191406-.226562 3.199219-.671875 4.042969-1.773437 5.886719-6.484375 4.121093-10.527344l-43.640624-99.761719c12.726562-9.730468 16.082031-27.484374 7.785156-41.191406l42.191406-42.191406c3.03125-3.140625 2.988281-8.128906-.097656-11.214844-3.085938-3.085937-8.074219-3.128906-11.214844-.097656zm-58.34375 85.65625c-8.835938 0-16-7.164062-16-16s7.164062-16 16-16 16 7.164062 16 16-7.164062 16-16 16zm0 0" fill="#df594e"/></svg>
